<?xml version="1.0" encoding="iso-8859-1"?>
<!-- Uploaded to: SVG Repo, www.svgrepo.com, Generator: SVG Repo Mixer Tools -->
<svg fill="#000000" height="800px" width="800px" version="1.1" id="Layer_1" xmlns="http://www.w3.org/2000/svg" xmlns:xlink="http://www.w3.org/1999/xlink" 
	 viewBox="0 0 512 512" xml:space="preserve">
<g>
	<g>
		<path d="M502.175,90.512L390.866,40.423c-6.347-2.856-13.783-1.464-18.658,3.419l-88.372,88.372l-54.98-54.98
			c-3.131-3.131-7.378-4.891-11.805-4.891H16.696c-6.753,0-12.842,4.068-15.425,10.307c-2.583,6.239-1.155,13.42,3.62,18.196
			l162.072,162.072v82.466L65.499,391.044c-5.992,2.697-9.845,8.656-9.845,15.227s3.854,12.53,9.845,15.226l111.308,50.089
			c6.328,2.847,13.796,1.443,18.658-3.419c8.791-8.791,191.564-191.564,200.355-200.355c3.062-3.062,4.891-7.378,4.891-11.805
			v-89.382l101.463-45.659C515.268,115.072,515.282,96.409,502.175,90.512z M166.963,430.537l-53.926-24.266l53.926-24.267V430.537z
			 M200.355,416.05v-59.87v-59.869l59.869,59.869L200.355,416.05z M283.836,332.569L57.005,105.738h153.13l150.266,150.266
			L283.836,332.569z M367.318,155.827v59.87l-59.87-59.87l59.87-59.869V155.827z M400.71,130.004V81.471l53.926,24.266
			L400.71,130.004z"/>
	</g>
</g>
</svg>